<svg viewBox="0 0 498.1 157" xmlns="http://www.w3.org/2000/svg"><g fill="#08ffe1"><path d="m143.6 76.4a65.4 65.4 0 0 0 -63-63v-13.4h-4.2v13.4a65.4 65.4 0 0 0 -63 63h-13.4v4.2h13.4a65.4 65.4 0 0 0 63 63v13.4h4.2v-13.4a65.4 65.4 0 0 0 63-63h13.4v-4.2zm-66.3 59.2-48.3-27.9v-55.8l48.3 27.9zm-47.1-85.8 48.3-27.9 48.3 27.9-48.3 28zm97.8 57.9-48.3 27.9v-55.8l48.3-27.9z"/><path d="m78.5 74.5a1.2 1.2 0 0 1 -1.3-1.2 1.3 1.3 0 1 1 1.3 1.3"/><path d="m78.5 34.5a1.3 1.3 0 0 1 -1.3-1.3 1.3 1.3 0 0 1 2.6 0 1.3 1.3 0 0 1 -1.3 1.3zm0 6.6a1.2 1.2 0 0 1 -1.3-1.2v-.2a1.3 1.3 0 0 1 2.6 0v.2a1.2 1.2 0 0 1 -1.3 1.2zm0 6.7a1.2 1.2 0 0 1 -1.3-1.2v-.2a1.3 1.3 0 0 1 2.6 0v.2a1.2 1.2 0 0 1 -1.3 1.2zm0 6.7a1.2 1.2 0 0 1 -1.3-1.2v-.2a1.3 1.3 0 0 1 2.6 0v.2a1.2 1.2 0 0 1 -1.3 1.2zm0 6.7a1.3 1.3 0 0 1 -1.3-1.3 1.3 1.3 0 0 1 2.6 0 1.3 1.3 0 0 1 -1.3 1.3zm0 6.7a1.3 1.3 0 0 1 -1.3-1.3 1.3 1.3 0 0 1 2.6 0 1.3 1.3 0 0 1 -1.3 1.3"/><path d="m78.5 27.7a1.2 1.2 0 0 1 -1.3-1.2 1.3 1.3 0 0 1 2.6 0 1.3 1.3 0 0 1 -1.3 1.3"/><path d="m73.4 83.3a1.1 1.1 0 0 1 -1.1-.6 1.1 1.1 0 0 1 .5-1.7 1.2 1.2 0 0 1 1.7.4 1.3 1.3 0 0 1 -.4 1.7h-.7"/><path d="m67.6 86.7a1.2 1.2 0 0 1 -1.1-.7 1.1 1.1 0 0 1 .5-1.7h.1a1.3 1.3 0 0 1 1.7.5 1.3 1.3 0 0 1 -.5 1.7h-.1zm-5.8 3.3a1.3 1.3 0 0 1 -1.1-.6 1.2 1.2 0 0 1 .5-1.7h.1a1.2 1.2 0 0 1 1.7.5 1.3 1.3 0 0 1 -.5 1.7h-.1a.7.7 0 0 1 -.6.1zm-5.8 3.4a1.4 1.4 0 0 1 -1.1-.7 1.3 1.3 0 0 1 .5-1.7h.1a1.3 1.3 0 0 1 1.7.5 1.2 1.2 0 0 1 -.4 1.7h-.2zm-5.8 3.3a1.3 1.3 0 0 1 -1.1-.6 1.4 1.4 0 0 1 .5-1.8h.1a1.2 1.2 0 0 1 1.7.4 1.3 1.3 0 0 1 -.4 1.8h-.2zm-5.8 3.3a1.4 1.4 0 0 1 -1.1-.6 1.3 1.3 0 0 1 .5-1.7h.1a1.3 1.3 0 0 1 1.7.5 1.2 1.2 0 0 1 -.4 1.7h-.8zm-5.8 3.4a1.4 1.4 0 0 1 -1.1-.6 1.4 1.4 0 0 1 .5-1.8h.1a1.2 1.2 0 0 1 1.7.4 1.3 1.3 0 0 1 -.4 1.8h-.1z"/><path d="m32.9 106.7a1.3 1.3 0 0 1 -1.1-.6 1.3 1.3 0 0 1 .5-1.8 1.3 1.3 0 0 1 1.7.5 1.2 1.2 0 0 1 -.4 1.7h-.1z"/><path d="m83.6 83.3h-.6a1.4 1.4 0 0 1 -.5-1.8 1.3 1.3 0 0 1 1.7-.5 1.1 1.1 0 0 1 .5 1.7 1.1 1.1 0 0 1 -1.1.6"/><path d="m89.4 86.7-.6-.2h-.1a1.3 1.3 0 0 1 -.5-1.7 1.3 1.3 0 0 1 1.7-.5h.1a1.3 1.3 0 0 1 -.6 2.4zm5.8 3.3a.7.7 0 0 1 -.6-.2h-.1a1.3 1.3 0 0 1 -.5-1.7 1.2 1.2 0 0 1 1.7-.5h.1a1.3 1.3 0 0 1 .5 1.7 1.3 1.3 0 0 1 -1.1.7zm5.8 3.4-.6-.2h-.2a1.2 1.2 0 0 1 -.4-1.7 1.3 1.3 0 0 1 1.7-.5h.1a1.3 1.3 0 0 1 .5 1.7 1.4 1.4 0 0 1 -1.1.7zm5.8 3.3-.6-.2h-.2a1.3 1.3 0 0 1 -.4-1.8 1.2 1.2 0 0 1 1.7-.4h.1a1.4 1.4 0 0 1 .5 1.8 1.3 1.3 0 0 1 -1.1.6zm5.8 3.3h-.8a1.2 1.2 0 0 1 -.4-1.7 1.3 1.3 0 0 1 1.7-.5h.1a1.3 1.3 0 0 1 .5 1.7 1.4 1.4 0 0 1 -1.1.5zm5.8 3.4-.7-.2h-.1a1.3 1.3 0 0 1 -.4-1.8 1.2 1.2 0 0 1 1.7-.4h.1a1.4 1.4 0 0 1 .5 1.8 1.4 1.4 0 0 1 -1.1.6"/><path d="m124.1 106.7-.6-.2a1.2 1.2 0 0 1 -.5-1.7 1.3 1.3 0 0 1 1.7-.5h.1a1.2 1.2 0 0 1 .4 1.7 1.3 1.3 0 0 1 -1.1.6"/><text font-family="AvenirNextLTPro-Regular, Avenir Next LT Pro" font-size="52.4" transform="translate(196.3 94.6)">VIEWB<tspan letter-spacing="-.03em" x="161.5" y="0">L</tspan><tspan x="186.7" y="0">OC</tspan><tspan letter-spacing="-.01em" x="268.9" y="0">K</tspan></text></g></svg>