<svg viewBox="0 0 549.6 153.1" xmlns="http://www.w3.org/2000/svg"><g fill="#08ffe1"><path d="m153.1 0v19.3h-76.7a57.6 57.6 0 0 0 -22 4.4 57 57 0 0 0 -21.4 15.8 55.2 55.2 0 0 0 -12.5 25.8 52.4 52.4 0 0 0 -1 15.8 55.8 55.8 0 0 0 5.5 20.3 63.1 63.1 0 0 0 7.1 11.3 54 54 0 0 0 14.1 12.4 54.4 54.4 0 0 0 18.7 7.5 53.8 53.8 0 0 0 11.4 1.1h76.7c.2 6.5 0 12.8.1 19.3l-1.9.2h-80.3c-4.9 0-9.7-1.2-14.4-2.5a74.6 74.6 0 0 1 -27-13.5 70.2 70.2 0 0 1 -9.1-8.2 88.4 88.4 0 0 1 -9.9-13.5 76.4 76.4 0 0 1 -8.9-23.3c-.6-2.7-.7-5.6-1.2-8.4a52.6 52.6 0 0 1 -.4-8.9 80 80 0 0 1 1.2-11.9 73.4 73.4 0 0 1 4.4-15.2 68.9 68.9 0 0 1 11.3-19.2 59.9 59.9 0 0 1 5.3-6 96.9 96.9 0 0 1 12.7-10.3 76.3 76.3 0 0 1 24.2-10.3 45.8 45.8 0 0 1 11.1-1.6c.3 0 .7-.3 1-.4z"/><path d="m119.4 100.3-1.4 1.6c-5.5 5.6-11.1 11-16.5 16.6a4.6 4.6 0 0 1 -3.3 1.3h-22.4a41.4 41.4 0 0 1 -17.3-4 42.8 42.8 0 0 1 -15.2-11.8 34.7 34.7 0 0 1 -6.9-11.9 47.2 47.2 0 0 1 -2.5-8.9c-.4-3.4-.9-6.9-.3-10.5a77.9 77.9 0 0 1 2-9.6 44.5 44.5 0 0 1 7.4-13.5c5.3-6.7 12.2-11.1 20.1-14a42.1 42.1 0 0 1 10.6-1.9c8.2-.7 16.5-.2 24.7-.4a4.3 4.3 0 0 1 3.8 1.6c5.3 5.4 10.7 10.7 16 16l1.7 1.8h-2.9c-12.5 0-25.1-.1-37.6.1-4.1.1-8.3.4-12.2 2.1a23 23 0 0 0 -12.4 12.3 21.9 21.9 0 0 0 -2 10 23.5 23.5 0 0 0 9.4 18.2 24.1 24.1 0 0 0 15 4.9z"/><path d="m549.5 76.3a46.7 46.7 0 0 1 -5.7 23.5 39.3 39.3 0 0 1 -15.7 16.1 41.5 41.5 0 0 1 -13.6 4.7 53.1 53.1 0 0 1 -14.9.2 44 44 0 0 1 -13-3.6 32.7 32.7 0 0 1 -7.8-4.8 46 46 0 0 1 -7.8-8.1 38.4 38.4 0 0 1 -5.3-10 45.2 45.2 0 0 1 -2.9-13.2c0-2-.5-4.1-.4-6.1a57 57 0 0 1 4.1-18.6 41.4 41.4 0 0 1 11.2-15 37.6 37.6 0 0 1 16.5-8.1 34.7 34.7 0 0 1 7.1-1c1.9 0 3.8-.4 5.7-.4 10.2.4 19.5 3.1 27.5 9.6a37.7 37.7 0 0 1 8.4 9.8 47.7 47.7 0 0 1 5.9 15.9 90.6 90.6 0 0 1 .7 9.1zm-43.4 38.3a43.4 43.4 0 0 0 5.1 0 42.4 42.4 0 0 0 9.3-2.4c6-2.1 10.6-6.2 14.5-11a34 34 0 0 0 5.9-11.7c1.6-5.9 2.5-11.9 1.6-18.1a50.6 50.6 0 0 0 -2.9-11.6 33.2 33.2 0 0 0 -10.8-14.3c-6.4-4.8-13.7-6.7-21.5-7.1a40.2 40.2 0 0 0 -9.8.9 32.4 32.4 0 0 0 -19.8 11.4c-5.4 6.5-7.8 14.3-8.3 22.7a47.5 47.5 0 0 0 .3 9.2 45.9 45.9 0 0 0 2.5 9.5 34.5 34.5 0 0 0 6.8 11.3 30.7 30.7 0 0 0 9 7.1 34.5 34.5 0 0 0 18.1 4.1z"/><path d="m277.3 33.4h61.7a15.3 15.3 0 0 1 .1 6.8h-54.8c-.5 1.9-.6 28.7-.2 32.5.8.6 1.7.3 2.6.3h44.4c3.2 0 3.2 0 3.2 3.1v2.9a4 4 0 0 1 -2.8.5h-47.4v33a48.3 48.3 0 0 0 7.6.2c2.5.1 5.1 0 7.6 0h38.6a48.9 48.9 0 0 1 .1 6.6c-1.9.4-57.6.6-60.7.2h-.1c-.1-.1-.1-.2-.2-.2s-.1-.9-.1-1.4c0-28 .1-55.9.1-83.9a1.5 1.5 0 0 1 .3-.6z"/><path d="m143.6 76.7-4.1 4.1-4.7 4.4a4.4 4.4 0 0 1 -3.1 1.3h-54.5c-3.8 0-7-1.5-8.9-4.7s-2.3-7.6.9-11.4a8.9 8.9 0 0 1 7.3-3.4h55.2a4.9 4.9 0 0 1 3.8 1.6c2.6 2.7 5.2 5.2 8.1 8.1z"/><path d="m412.5 33.7c-9.4 14.1-19.1 27.7-28.8 41.8l31.7 44.2h-7.7c-.5 0-1-.6-1.3-1-2.7-3.8-5.4-7.5-8-11.3l-17.7-25a10.5 10.5 0 0 0 -1.4-1.7l-4.7 6.7-15.4 21.6c-2.3 3.3-4.5 6.6-6.8 9.8a2.7 2.7 0 0 1 -1.5.9h-7.6c10.7-15.1 21.3-29.6 31.8-44.4l-9.7-13.9c-3.2-4.7-6.4-9.3-9.7-13.9s-6.5-9.1-9.8-13.9l1.8-.4c1.1 0 2.2.1 3.2 0s2.9.6 4 2.1c4.9 7.1 10 14.1 15 21.2 2.9 4.1 5.7 8.2 8.6 12.2a6.2 6.2 0 0 0 .8 1.2l2.3-2.9 11.3-16c3.9-5.6 7.9-11.2 11.9-16.7a2 2 0 0 1 1.4-1 19.3 19.3 0 0 1 6.3.4z"/><path d="m266.9 45.4-4.7 4.1a36.5 36.5 0 0 1 -3.1-2.4 36.3 36.3 0 0 0 -14.7-7.3 38.4 38.4 0 0 0 -13.9-.8c-7.4.6-14.2 2.9-20 7.8a35.4 35.4 0 0 0 -11.5 18.5 41.5 41.5 0 0 0 -1.5 11.6c.3 7.9 2 15.5 6.6 22.2a33.8 33.8 0 0 0 15.1 12.3 42.3 42.3 0 0 0 20.2 2.7 33.5 33.5 0 0 0 15.3-5.1c2.6-1.7 5-3.5 7.7-5.4l3.9 4.2a11.2 11.2 0 0 1 -3.2 3.3 44.7 44.7 0 0 1 -19.9 9.1 53.1 53.1 0 0 1 -14.9.1 43 43 0 0 1 -16.4-5.1 38.2 38.2 0 0 1 -15.5-15.6 43.8 43.8 0 0 1 -4.9-14.1 56 56 0 0 1 -.2-15.3 45 45 0 0 1 5.2-16.4 40 40 0 0 1 16-16.1 46.7 46.7 0 0 1 14.8-4.8 51.5 51.5 0 0 1 10.4-.5 42.9 42.9 0 0 1 20.8 6.6c2 1.3 3.9 2.7 5.8 4.1a25.3 25.3 0 0 1 2.6 2.3z"/><path d="m450.8 119.7h-6.7a13.7 13.7 0 0 1 -.2-1.9v-82a3.2 3.2 0 0 1 .1-1.4c.2-.4.6-1 1-1a38.4 38.4 0 0 1 4.8 0c.4 0 .8.7 1 1.1a10.8 10.8 0 0 1 0 1.8z"/><path d="m152.8 119.7h-33.4l1-1.3 16.8-16.8a3.9 3.9 0 0 1 3-1.3c4.2.1 8.3 0 12.4 0 .6 1.7.7 16.4.2 19.4z"/><path d="m119.6 33.4h31.8c1.3.1 1.6.3 1.6 1.7.1 5.8.1 11.5.1 17.4l-1.4.3h-11.8a2.9 2.9 0 0 1 -2.3-.8l-17.3-17.5a11.5 11.5 0 0 1 -.7-1.1z"/><path d="m425 76.6a4.8 4.8 0 0 1 -4.9 4.8 4.8 4.8 0 0 1 -4.8-4.9 4.9 4.9 0 0 1 4.9-4.8 5 5 0 0 1 4.8 4.9z"/></g></svg>