<svg viewBox="0 0 250.6 141.5" xmlns="http://www.w3.org/2000/svg"><g fill="#08ffe1"><path d="m23.4 0 .6 1 8.4 17.1 9.9 20 11.5 23.5 10.5 21.2 4.6 9.4a2 2 0 0 1 .1 2c-2.7 5.2-5.3 10.4-7.9 15.7-4.5 9.1-9.1 18.2-13.6 27.4-.6 1.2-1.2 2.5-1.9 3.7a.9.9 0 0 1 -.3.5l-.6-.9c-2.2-4.6-4.4-9.2-6.5-13.8-4.4-9-8.7-18-13-27l-8.2-17.1c-5-10.5-10.1-21.1-15.1-31.7-.6-1.1-1.1-2.2-1.6-3.3a1.8 1.8 0 0 1 0-2l9.6-19 10.5-20.9c.8-1.7 1.7-3.3 2.5-5zm22.1 52.3h-.3a5.9 5.9 0 0 0 -.4.8l-8.7 17.9c-3.1 6.4-6.3 12.9-9.4 19.4a2 2 0 0 0 -.4.8 1.5 1.5 0 0 0 1.2.3h36.2l.7-.2zm-19.2 42.5.4 1.1c2.2 4.4 4.3 8.9 6.5 13.4s4.9 10.1 7.3 15.1l4.2 8.6.7 1a9.3 9.3 0 0 0 .5-1l4.8-9.7c3.5-7.3 7-14.6 10.6-21.8l2.7-5.8c.2-.2.2-.5.3-.8s-32.1-.4-37.1-.2zm-2.7-5.7.3-.4c6.3-12.7 12.5-25.5 18.6-38.3a.6.6 0 0 0 .1-.4h-37.8c0 .2-.1.3 0 .4l18.6 38.3zm-18.9-43h37.9a10.4 10.4 0 0 0 -.4-1c-1.5-3.2-3.1-6.4-4.7-9.7-2.8-5.8-5.6-11.6-8.5-17.4-1.6-3.4-3.2-6.8-4.9-10.1a3.5 3.5 0 0 0 -.5-.8c-.6.7-18.8 38.1-18.9 39z"/><path d="m121.4 71.8v-30.2a1.3 1.3 0 0 1 .1-.6c0-.4.1-.4.4-.5h40c1 0 1 0 1 1v8.8c0 .9-.1.9-.9.9h-27c-.5 0-.6.1-.6.6v13.7c0 1 0 1 1 1h25.4a.4.4 0 0 1 .4.4v8.7c0 .8 0 .8-.8.8h-25.6c-.2 0-.3.1-.4.3v14.8c0 .9 0 .9.9.9h27.1c.3 0 .4.1.4.4a.8.8 0 0 1 .1.4v9.1c0 .8-.1.8-.9.8h-39.7c-.8 0-.9 0-.9-.8z"/><path d="m189.6 103.1h-18.2c-.9 0-.9 0-.9-.9s0-3.7-.1-5.6a2.1 2.1 0 0 1 .4-1.1l5.4-6.8c1.2-1.5 2.3-3 3.5-4.4s4.1-5.3 6.2-7.9l5.5-7 1.9-2.4c.1-.1.1-.2.2-.2s.1-.5-.3-.6h-21.8c-.5 0-.6-.1-.6-.6v-8.4c0-.4.1-.5.6-.5h36.3c.4 0 .5.1.5.4v6.9a1.7 1.7 0 0 1 -.4 1.2l-4.1 5.4-5.4 7.1c-1.6 2.1-3.3 4.2-4.9 6.4s-3.3 4.3-5 6.5l-1.6 2.1a.5.5 0 0 0 -.2.4c-.1.2-.1.3.2.4h21.3c.5 0 .6.1.6.6v8.5c0 .4-.1.5-.5.5s-.4 0-.6 0z"/><path d="m250.6 71.9v30.8c0 .3-.1.4-.4.4s-.3 0-.4 0h-11.1c-.7 0-.7 0-.7-.7v-61.5c0-.2.1-.3.4-.4h11.4c.8 0 .8.1.8.8z"/><path d="m216.6 80v-22.6c0-.7.1-.7.8-.7 3.7-.1 7.4-.1 11 0 .6 0 .7 0 .7.6v45.3c0 .4-.1.5-.5.5h-11.1c-.9 0-.9 0-.9-.8z"/><path d="m222.8 51.4a7 7 0 0 1 -5.6-2.9 8.2 8.2 0 0 1 -1-2.6 5.7 5.7 0 0 1 .3-2.9 5.6 5.6 0 0 1 3.1-3.8 6.7 6.7 0 0 1 7.1.4 6 6 0 0 1 2.8 4.4 6.1 6.1 0 0 1 -2.7 6.1 7.1 7.1 0 0 1 -4 1.3z"/></g></svg>