<svg viewBox="0 0 386.4 162.1" xmlns="http://www.w3.org/2000/svg" xmlns:xlink="http://www.w3.org/1999/xlink"><clipPath id="a"><path d="m68.9 43.8-29.8 17.2a2.9 2.9 0 0 0 -1.5 2.5v34.5a2.9 2.9 0 0 0 1.5 2.5l29.8 17.3a3.2 3.2 0 0 0 3 0l29.8-17.3a2.9 2.9 0 0 0 1.5-2.5v-34.5a2.9 2.9 0 0 0 -1.5-2.5l-29.8-17.2a3.2 3.2 0 0 0 -3 0z"/></clipPath><radialGradient id="b" cx="70.67" cy="43.32" gradientUnits="userSpaceOnUse" r="40.42"><stop offset="0" stop-color="#5f7495"/><stop offset=".33" stop-color="#647899"/><stop offset=".72" stop-color="#7185a3"/><stop offset=".99" stop-color="#8092ae"/></radialGradient><linearGradient id="c" gradientUnits="userSpaceOnUse" x1="70.4" x2="70.4" y1="80.78" y2="42.95"><stop offset=".24"/><stop offset="1" stop-color="#fff" stop-opacity=".9"/></linearGradient><clipPath id="d"><path d="m68.9 79.9-31.3-18v37.8l32.8 18.9 32.8-18.9v-37.8l-31.4 18a2.6 2.6 0 0 1 -2.9 0z"/></clipPath><radialGradient id="e" cx="54.16" cy="62.39" r="47.7" xlink:href="#b"/><linearGradient id="f" x1="54.02" x2="54.02" xlink:href="#c" y1="118.6" y2="61.86"/><radialGradient id="g" cx="86.91" cy="62.39" r="47.7" xlink:href="#b"/><linearGradient id="h" x1="86.78" x2="86.78" xlink:href="#c" y1="118.6" y2="61.86"/><clipPath id="i"><path d="m106.2 65.3-29.9 17.2a2.9 2.9 0 0 0 -1.4 2.5v34.5a2.9 2.9 0 0 0 1.4 2.5l29.9 17.3a3 3 0 0 0 2.9 0l29.8-17.3a2.9 2.9 0 0 0 1.5-2.5v-34.5a2.9 2.9 0 0 0 -1.5-2.5l-29.8-17.2a3 3 0 0 0 -2.9 0z"/></clipPath><clipPath id="j"><path d="m106.2 101.4-31.3-18v37.8l32.7 18.9 32.8-18.9v-37.8l-31.3 18a2.6 2.6 0 0 1 -2.9 0z"/></clipPath><clipPath id="k"><path d="m31.7 65.3-29.8 17.2a2.9 2.9 0 0 0 -1.5 2.5v34.5a2.9 2.9 0 0 0 1.5 2.5l29.8 17.3a3 3 0 0 0 2.9 0l29.9-17.3a2.9 2.9 0 0 0 1.4-2.5v-34.5a2.9 2.9 0 0 0 -1.4-2.5l-29.9-17.2a3 3 0 0 0 -2.9 0z"/></clipPath><clipPath id="l"><path d="m31.7 101.4-31.3-18v37.8l32.8 18.9 32.7-18.9v-37.8l-31.3 18a2.6 2.6 0 0 1 -2.9 0z"/></clipPath><clipPath id="m"><path d="m68.9 86.8-29.8 17.2a2.9 2.9 0 0 0 -1.5 2.5v34.5a2.9 2.9 0 0 0 1.5 2.5l29.8 17.3a3.2 3.2 0 0 0 3 0l29.8-17.3a2.9 2.9 0 0 0 1.5-2.5v-34.5a2.9 2.9 0 0 0 -1.5-2.5l-29.8-17.2a3.2 3.2 0 0 0 -3 0z"/></clipPath><clipPath id="n"><path d="m68.9 122.9-31.3-18v37.8l32.8 18.9 32.8-18.9v-37.8l-31.4 18a3 3 0 0 1 -2.9 0z"/></clipPath><clipPath id="o"><path d="m68.9.8-29.8 17.2a3.1 3.1 0 0 0 -1.5 2.6v34.4a2.8 2.8 0 0 0 1.5 2.5l29.8 17.3a3.2 3.2 0 0 0 3 0l29.8-17.3a2.8 2.8 0 0 0 1.5-2.5v-34.4a3.1 3.1 0 0 0 -1.5-2.6l-29.8-17.2a3.2 3.2 0 0 0 -3 0z"/></clipPath><clipPath id="p"><path d="m68.9 37-31.3-18.1v37.8l32.8 18.9 32.8-18.9v-37.8l-31.4 18.1a3 3 0 0 1 -2.9 0z"/></clipPath><clipPath id="q"><path d="m106.2 22.3-29.9 17.2a2.9 2.9 0 0 0 -1.4 2.6v34.4a2.7 2.7 0 0 0 1.4 2.5l29.9 17.3a3 3 0 0 0 2.9 0l29.8-17.3a2.8 2.8 0 0 0 1.5-2.5v-34.4a3 3 0 0 0 -1.5-2.6l-29.8-17.2a3 3 0 0 0 -2.9 0z"/></clipPath><clipPath id="r"><path d="m106.2 58.4-31.3-18v37.8l32.7 18.9 32.8-18.9v-37.8l-31.3 18a2.6 2.6 0 0 1 -2.9 0z"/></clipPath><clipPath id="s"><path d="m31.7 22.3-29.8 17.2a3 3 0 0 0 -1.5 2.6v34.4a2.8 2.8 0 0 0 1.5 2.5l29.8 17.3a3 3 0 0 0 2.9 0l29.9-17.3a2.7 2.7 0 0 0 1.4-2.5v-34.4a2.9 2.9 0 0 0 -1.4-2.6l-29.9-17.2a3 3 0 0 0 -2.9 0z"/></clipPath><clipPath id="t"><path d="m31.7 58.4-31.3-18v37.8l32.8 18.9 32.7-18.9v-37.8l-31.3 18a2.6 2.6 0 0 1 -2.9 0z"/></clipPath><linearGradient id="u" x1="70.4" x2="70.4" xlink:href="#c" y1="80.78" y2="37.79"/><g clip-path="url(#a)"><path d="m70.4 43-32.8 18.9 32.8 18.9 32.8-18.9z" fill="url(#b)"/><path d="m70.4 43.9 31.1 18-31.1 17.9-31.1-17.9zm0-1-32.8 19 32.8 18.9 32.8-18.9z" fill="url(#c)" opacity=".16"/><g clip-path="url(#d)"><path d="m70.4 118.6-32.8-18.9v-37.8l32.8 18.9z" fill="url(#e)"/><path d="m38.5 63.3 31.1 18v35.9l-31.1-18zm-.9-1.4v37.8l32.8 18.9v-37.8z" fill="url(#f)" opacity=".16"/><path d="m70.4 118.6 32.8-18.9v-37.8l-32.8 18.9z" fill="url(#g)"/><path d="m102.3 63.3v35.9l-31.1 18v-35.9zm.9-1.4-32.8 18.9v37.8l32.8-18.9z" fill="url(#h)" opacity=".16"/></g></g><g clip-path="url(#i)"><path d="m107.6 65.4 31.1 18-31.1 17.9-31.1-17.9zm0-1-32.7 19 32.7 18.9 32.8-18.9z" fill="#08ffe1" opacity=".16"/><g clip-path="url(#j)" fill="#08ffe1"><path d="m75.7 84.8 31.1 17.9v36l-31.1-18zm-.8-1.4v37.8l32.7 18.9v-37.8z" opacity=".16"/><path d="m139.6 84.8v35.9l-31.2 18v-36zm.8-1.4-32.8 18.9v37.8l32.8-18.9z" opacity=".16"/></g><path d="m106.2 101.4-31.3-18v37.8l32.7 18.9 32.8-18.9v-37.8l-31.3 18a2.6 2.6 0 0 1 -2.9 0z" fill="none" stroke="#08ffe1" stroke-miterlimit="10" stroke-width=".82"/></g><path d="m106.2 65.3-29.9 17.2a2.9 2.9 0 0 0 -1.4 2.5v34.5a2.9 2.9 0 0 0 1.4 2.5l29.9 17.3a3 3 0 0 0 2.9 0l29.8-17.3a2.9 2.9 0 0 0 1.5-2.5v-34.5a2.9 2.9 0 0 0 -1.5-2.5l-29.8-17.2a3 3 0 0 0 -2.9 0z" fill="none" stroke="#08ffe1" stroke-miterlimit="10" stroke-width=".82"/><g clip-path="url(#k)"><path d="m33.2 65.4 31.1 18-31.1 17.9-31.1-17.9zm0-1-32.8 19 32.8 18.9 32.7-18.9z" fill="#08ffe1" opacity=".16"/><g clip-path="url(#l)" fill="#08ffe1"><path d="m1.2 84.8 31.1 17.9v36l-31.1-18v-35.9m-.8-1.4v37.8l32.8 18.9v-37.8z" opacity=".16"/><path d="m65.1 84.8v35.9l-31.1 18v-36zm.8-1.4-32.7 18.9v37.8l32.7-18.9z" opacity=".16"/></g><path d="m31.7 101.4-31.3-18v37.8l32.8 18.9 32.7-18.9v-37.8l-31.3 18a2.6 2.6 0 0 1 -2.9 0z" fill="none" stroke="#08ffe1" stroke-miterlimit="10" stroke-width=".82"/></g><path d="m31.7 65.3-29.8 17.2a2.9 2.9 0 0 0 -1.5 2.5v34.5a2.9 2.9 0 0 0 1.5 2.5l29.8 17.3a3 3 0 0 0 2.9 0l29.9-17.3a2.9 2.9 0 0 0 1.4-2.5v-34.5a2.9 2.9 0 0 0 -1.4-2.5l-29.9-17.2a3 3 0 0 0 -2.9 0z" fill="none" stroke="#08ffe1" stroke-miterlimit="10" stroke-width=".82"/><g clip-path="url(#m)"><path d="m70.4 86.9 31.1 18-31.1 17.9-31.1-17.9zm0-1-32.8 19 32.8 18.9 32.8-18.9z" fill="#08ffe1" opacity=".16"/><g clip-path="url(#n)" fill="#08ffe1"><path d="m38.5 106.3 31.1 17.9v36l-31.1-18zm-.9-1.4v37.8l32.8 18.9v-37.8z" opacity=".16"/><path d="m102.3 106.3v35.9l-31.1 18v-36zm.9-1.4-32.8 18.9v37.8l32.8-18.9z" opacity=".16"/></g><path d="m68.9 122.9-31.3-18v37.8l32.8 18.9 32.8-18.9v-37.8l-31.4 18a3 3 0 0 1 -2.9 0z" fill="none" stroke="#08ffe1" stroke-miterlimit="10" stroke-width=".82"/></g><path d="m68.9 86.8-29.8 17.2a2.9 2.9 0 0 0 -1.5 2.5v34.5a2.9 2.9 0 0 0 1.5 2.5l29.8 17.3a3.2 3.2 0 0 0 3 0l29.8-17.3a2.9 2.9 0 0 0 1.5-2.5v-34.5a2.9 2.9 0 0 0 -1.5-2.5l-29.8-17.2a3.2 3.2 0 0 0 -3 0z" fill="none" stroke="#08ffe1" stroke-miterlimit="10" stroke-width=".82"/><g clip-path="url(#o)"><path d="m70.4.9 31.1 18-31.1 17.9-31.1-17.9zm0-.9-32.8 18.9 32.8 18.9 32.8-18.9z" fill="#08ffe1" opacity=".16"/><g clip-path="url(#p)" fill="#08ffe1"><path d="m38.5 20.3 31.1 18v35.9l-31.1-18zm-.9-1.4v37.8l32.8 18.9v-37.8z" opacity=".16"/><path d="m102.3 20.3v35.9l-31.1 18v-35.9zm.9-1.4-32.8 18.9v37.8l32.8-18.9z" opacity=".16"/></g><path d="m68.9 37-31.3-18.1v37.8l32.8 18.9 32.8-18.9v-37.8l-31.4 18.1a3 3 0 0 1 -2.9 0z" fill="none" stroke="#08ffe1" stroke-miterlimit="10" stroke-width=".82"/></g><path d="m68.9.8-29.8 17.2a3.1 3.1 0 0 0 -1.5 2.6v34.4a2.8 2.8 0 0 0 1.5 2.5l29.8 17.3a3.2 3.2 0 0 0 3 0l29.8-17.3a2.8 2.8 0 0 0 1.5-2.5v-34.4a3.1 3.1 0 0 0 -1.5-2.6l-29.8-17.2a3.2 3.2 0 0 0 -3 0z" fill="none" stroke="#08ffe1" stroke-miterlimit="10" stroke-width=".82"/><g clip-path="url(#q)"><path d="m107.6 22.4 31.1 18-31.1 17.9-31.1-17.9zm0-.9-32.7 18.9 32.7 18.9 32.8-18.9z" fill="#08ffe1" opacity=".16"/><g clip-path="url(#r)" fill="#08ffe1"><path d="m75.7 41.8 31.1 18v35.9l-31.1-18zm-.8-1.4v37.8l32.7 18.9v-37.8z" opacity=".16"/><path d="m139.6 41.8v35.9l-31.2 18v-35.9zm.8-1.4-32.8 18.9v37.8l32.8-18.9z" opacity=".16"/></g><path d="m106.2 58.4-31.3-18v37.8l32.7 18.9 32.8-18.9v-37.8l-31.3 18a2.6 2.6 0 0 1 -2.9 0z" fill="none" stroke="#08ffe1" stroke-miterlimit="10" stroke-width=".82"/></g><path d="m106.2 22.3-29.9 17.2a2.9 2.9 0 0 0 -1.4 2.6v34.4a2.7 2.7 0 0 0 1.4 2.5l29.9 17.3a3 3 0 0 0 2.9 0l29.8-17.3a2.8 2.8 0 0 0 1.5-2.5v-34.4a3 3 0 0 0 -1.5-2.6l-29.8-17.2a3 3 0 0 0 -2.9 0z" fill="none" stroke="#08ffe1" stroke-miterlimit="10" stroke-width=".82"/><g clip-path="url(#s)"><path d="m33.2 22.4 31.1 18-31.1 17.9-31.1-17.9zm0-.9-32.8 18.9 32.8 18.9 32.7-18.9z" fill="#08ffe1" opacity=".16"/><g clip-path="url(#t)" fill="#08ffe1"><path d="m1.2 41.8 31.1 18v35.9l-31.1-18zm-.8-1.4v37.8l32.8 18.9v-37.8z" opacity=".16"/><path d="m65.1 41.8v35.9l-31.1 18v-35.9zm.8-1.4-32.7 18.9v37.8l32.7-18.9z" opacity=".16"/></g><path d="m31.7 58.4-31.3-18v37.8l32.8 18.9 32.7-18.9v-37.8l-31.3 18a2.6 2.6 0 0 1 -2.9 0z" fill="none" stroke="#08ffe1" stroke-miterlimit="10" stroke-width=".82"/></g><path d="m31.7 22.3-29.8 17.2a3 3 0 0 0 -1.5 2.6v34.4a2.8 2.8 0 0 0 1.5 2.5l29.8 17.3a3 3 0 0 0 2.9 0l29.9-17.3a2.7 2.7 0 0 0 1.4-2.5v-34.4a2.9 2.9 0 0 0 -1.4-2.6l-29.9-17.2a3 3 0 0 0 -2.9 0z" fill="none" stroke="#08ffe1" stroke-miterlimit="10" stroke-width=".82"/><path d="m70.4 37.8-37.2 21.5 37.2 21.5 37.2-21.5z" fill="#08ffe1"/><path d="m70.4 38.7 35.6 20.6-35.6 20.5-35.6-20.5zm0-.9-37.2 21.5 37.2 21.5 37.2-21.5z" fill="url(#u)" opacity=".16"/><g fill="#08ffe1"><path d="m33.4 102.2v-41.1a2.8 2.8 0 0 1 2.7-2.8 3.1 3.1 0 0 1 1.3.3l32.8 16.5v48.3z"/><path d="m36.1 58.5a2.7 2.7 0 0 1 1.2.3l32.7 16.5v47.7l-36.4-21v-40.9a2.6 2.6 0 0 1 2.5-2.6m0-.4a3 3 0 0 0 -2.9 3v41.2l37.2 21.5v-48.8l-33-16.6a2.8 2.8 0 0 0 -1.3-.3z"/><path d="m70.6 78.1a1.5 1.5 0 0 1 .9-1.4l33.6-17.4.7-.2a1.6 1.6 0 0 1 1.6 1.6v40.5a1.6 1.6 0 0 1 -.8 1.4l-36 20.8z"/><path d="m105.8 59.3a1.4 1.4 0 0 1 1.4 1.4v40.5a1.4 1.4 0 0 1 -.7 1.2l-35.7 20.6v-44.9a1.3 1.3 0 0 1 .8-1.2l33.6-17.4zm0-.4-.8.2-33.6 17.4a1.8 1.8 0 0 0 -1 1.6v45.6l36.3-21a1.7 1.7 0 0 0 .9-1.6v-40.4a1.8 1.8 0 0 0 -1.8-1.8z"/><text font-family="CaviarDreams, Caviar Dreams" font-size="45.73" transform="translate(169.9 97)">Sha<tspan letter-spacing="0em" x="77.3" y="0">r</tspan><tspan x="90.5" y="0">dpool</tspan></text></g></svg>