<svg viewBox="0 0 443.7 122.2" xmlns="http://www.w3.org/2000/svg"><g fill="#08ffe1"><g fill-rule="evenodd"><path d="m24.3 0h26c16.8 12.4-4.6 36-20.7 48.5h-5.3a24.3 24.3 0 1 1 0-48.5"/><path d="m42 114.5a24.3 24.3 0 1 1 -34.3-34.3l29.4-29.4c10.7-10.8 39.9-34.2 21.8-50.8h34.6a24.3 24.3 0 0 1 23 16.7c4.8 14.6-3.2 25.8-12.4 35.5h-.1v.2h-.1l-.2.2h-.5l-.2.2h-.3v1.2h-.1l-.3.2h-.3v.2h-1v.2h-.5l-3.5 4.8z"/><path d="m102.4 73.6a24.3 24.3 0 1 1 -24.3 24.3 24.3 24.3 0 0 1 24.3-24.3"/></g><path d="m185.2 45.8-20.1 28.4h20.4v3.1h-24.8v-2.9l20.1-28.4h-19.6v-3.2h24z"/><path d="m195.1 77.3h-3.5v-34.5h3.5z"/><path d="m207.7 74.2h16.1v3.1h-19.6v-34.5h3.5z"/><path d="m232.6 74.2h16v3.1h-19.5v-34.5h3.5z"/><path d="m253.6 77.3h-3.8l14.9-34.5h3.4l14.8 34.5h-3.9l-3.8-9h-17.8zm5.1-12.2h15.2l-7.6-18.4z"/><path d="m316.1 71.8a15.2 15.2 0 0 1 -12.9 6.4c-10.4 0-18-7.6-18-18.1s7.7-18.1 18-18.1c5 0 9.9 2.1 12.3 5.4l-3 2.2c-1.4-2.3-4.9-4.6-9.3-4.6-8.9 0-14.3 7-14.3 15.1s5.5 15 14.3 15a11.8 11.8 0 0 0 10.2-5.1z"/><path d="m325.6 77.3h-3.5v-34.5h10.1c6.9 0 11.8 2.5 11.8 9.2s-3.8 8.4-8.8 8.9l10.1 16.4h-4.3l-9.5-16.1h-5.9zm0-19.1h6.1c5.6 0 8.8-2.1 8.8-6.2s-3.4-6.1-8.6-6.1h-6.3z"/><path d="m351 77.3h-3.8l14.9-34.5h3.4l14.8 34.5h-3.9l-3.8-9h-17.8zm5.1-12.2h15.2l-7.6-18.4z"/><path d="m413.5 71.8a15.2 15.2 0 0 1 -12.9 6.4c-10.4 0-18-7.6-18-18.1s7.7-18.1 18-18.1c5 0 9.9 2.1 12.3 5.4l-3 2.2c-1.4-2.3-4.9-4.6-9.3-4.6-8.9 0-14.3 7-14.3 15.1s5.5 15 14.3 15a11.8 11.8 0 0 0 10.2-5.1z"/><path d="m430.8 77.3h-3.5v-14.8l-12.9-19.7h4.3l10.4 16.7 10.5-16.7h4.1l-12.9 19.7z"/></g></svg>