<svg viewBox="0 0 367.6 146" xmlns="http://www.w3.org/2000/svg" xmlns:xlink="http://www.w3.org/1999/xlink"><clipPath id="a"><path d="m104.2 61.5v-22.4l-81.7-39.1-22.5 9.8v22.6l54.3 26-54.3 26.4v22.3l82.1 38.9 22.1-9.8v-67.1l-23.4 10.3v42.5l-50.4-24.2 52.3-26.7zm-20.7 6.2v-17.5l17.9-8.1v17.6zm16.1-27.7-17.4 7.9-77.5-37.2 17.8-7.7zm-16.1 41.2 17.9-7.9v61.1l-17.9 8zm-2.7 43.8v17.3l-78-36.9v-18.9l57.8-28.1-57.8-27.7v-17.8l78 37.3v18.8l-56.6 28.8z"/></clipPath><g fill="#08ffe1"><path d="m104.2 61.5v-22.4l-81.7-39.1-22.5 9.8v22.6l54.3 26-54.3 26.4v22.3l82.1 38.9 22.1-9.8v-67.1l-23.4 10.3v42.5l-50.4-24.2 52.3-26.7zm-20.7 6.2v-17.5l17.9-8.1v17.6zm16.1-27.7-17.4 7.9-77.5-37.2 17.8-7.7zm-16.1 41.2 17.9-7.9v61.1l-17.9 8zm-2.7 43.8v17.3l-78-36.9v-18.9l57.8-28.1-57.8-27.7v-17.8l78 37.3v18.8l-56.6 28.8z"/><g clip-path="url(#a)"><path d="m79 142.3 1.8-1.1v1.1z"/><path d="m76.3 142.3 4.5-2.8v1.7l-1.8 1.1z"/><path d="m73.5 142.3 7.3-4.5v1.7l-4.5 2.8z"/><path d="m70.8 142.3 10-6.2v1.7l-7.3 4.5z"/><path d="m68 142.3 12.8-8v1.8l-10 6.2z"/><path d="m65.2 142.3 15.6-9.7v1.7l-12.8 8z"/><path d="m62.5 142.3 18.3-11.4v1.7l-15.6 9.7z"/><path d="m59.7 142.3 21.1-13.1v1.7l-18.3 11.4z"/><path d="m57 142.3 23.8-14.8v1.7l-21.1 13.1z"/><path d="m54.2 142.3 26.6-16.6v1.8l-23.8 14.8z"/><path d="m51.5 142.3 29.3-18.3v1.7l-26.6 16.6z"/><path d="m48.7 142.3 32.1-20v1.7l-29.3 18.3z"/><path d="m46 142.3 34.8-21.7v1.7l-32.1 20z"/><path d="m43.2 142.3 37.6-23.4v1.7l-34.8 21.7z"/><path d="m40.4 142.3 40.4-25.2v1.8l-37.6 23.4z"/><path d="m37.7 142.3 43.1-26.9v1.7l-40.4 25.2z"/><path d="m34.9 142.3 45.9-28.6v1.7l-43.1 26.9z"/><path d="m32.2 142.3 48.6-30.3v1.7l-45.9 28.6z"/><path d="m29.4 142.3 51.4-32v1.7l-48.6 30.3z"/><path d="m26.7 142.3 54.1-33.8v1.8l-51.4 32z"/><path d="m25.4 142.3-.4-.7 55.8-34.8v1.7l-54.1 33.8z"/><path d="m25 141.6-.8-1.2 56.6-35.3v1.7z"/><path d="m24.2 140.4-.7-1.2 57.3-35.8v1.7z"/><path d="m23.5 139.2-.8-1.3 58.1-36.2v1.7z"/><path d="m22.7 137.9-.8-1.2 58.9-36.8v1.8z"/><path d="m21.9 136.7-.8-1.3 59.7-37.2v1.7z"/><path d="m21.1 135.4-.7-1.2 60.4-37.7v1.7z"/><path d="m20.4 134.2-.8-1.2 61.2-38.2v1.7z"/><path d="m19.6 133-.8-1.3 62-38.7v1.8z"/><path d="m18.8 131.7-.8-1.2 62.8-39.2v1.7z"/><path d="m18 130.5-.7-1.2 63.5-39.7v1.7z"/><path d="m17.3 129.3-.8-1.3 64.3-40.1v1.7z"/><path d="m16.5 128-.8-1.2 65.1-40.6v1.7z"/><path d="m15.7 126.8-.8-1.2 65.9-41.1v1.7z"/><path d="m14.9 125.6-.7-1.3 66.6-41.6v1.8z"/><path d="m14.2 124.3-.8-1.2 67.4-42.1v1.7z"/><path d="m13.4 123.1-.8-1.3 68.2-42.5v1.7z"/><path d="m12.6 121.8-.8-1.2 69-43v1.7z"/><path d="m11.8 120.6-.7-1.2 69.7-43.5v1.7z"/><path d="m11.1 119.4-.8-1.3 70.5-44v1.8z"/><path d="m10.3 118.1-.8-1.2 71.3-44.5v1.7z"/><path d="m9.5 116.9-.8-1.2 72.1-45v1.7z"/><path d="m8.7 115.7-.7-1.3 72.8-45.4v1.7z"/><path d="m8 114.4-.8-1.2 73.6-46v1.8z"/><path d="m7.2 113.2-.8-1.2 74.4-46.5v1.7z"/><path d="m6.4 112-.8-1.3 75.2-46.9v1.7z"/><path d="m5.6 110.7-.7-1.2 75.9-47.4v1.7z"/><path d="m4.9 109.5-.8-1.3 76.7-47.8v1.7z"/><path d="m4.1 108.2-.8-1.2 77.5-48.4v1.8z"/><path d="m3.3 107-.5-.9v-.5l78-48.7v1.7z"/><path d="m2.8 103.8 78-48.7v1.8l-78 48.7z"/><path d="m2.8 102 78-48.7v1.8l-78 48.7z"/><path d="m2.8 100.2 78-48.7v1.8l-78 48.7z"/><path d="m2.8 98.4 78-48.7v1.8l-78 48.7z"/><path d="m2.8 96.6 77.2-48.2.8 1.1v.2l-78 48.7z"/><path d="m2.8 94.8 76.4-47.8.8 1.4-77.2 48.2z"/><path d="m2.8 93 75.6-47.3.8 1.3-76.4 47.8z"/><path d="m2.8 91.2 74.8-46.7.8 1.2-75.6 47.3z"/><path d="m2.8 89.4 74-46.2.8 1.3-74.8 46.7z"/><path d="m2.8 87.6 73.2-45.7.8 1.3-74 46.2z"/><path d="m2.8 85.8 72.4-45.2.8 1.3-73.2 45.7z"/><path d="m2.8 83.9 71.5-44.7.9 1.4-72.4 45.2z"/><path d="m2.8 82.1 70.7-44.1.8 1.2-71.5 44.7z"/><path d="m2.8 80.3 69.9-43.6.8 1.3-70.7 44.1z"/><path d="m2.8 78.5 69.1-43.1.8 1.3-69.9 43.6z"/><path d="m2.8 76.7 68.3-42.6.8 1.3-69.1 43.1z"/><path d="m2.8 74.9 67.5-42.1.8 1.3-68.3 42.6z"/><path d="m2.8 73.1 66.7-41.6.8 1.3-67.5 42.1z"/><path d="m2.8 71.3 65.8-41.2.9 1.4-66.7 41.6z"/><path d="m2.8 69.5 65-40.6.8 1.2-65.8 41.2z"/><path d="m2.8 67.7 64.2-40.1.8 1.3-65 40.6z"/><path d="m2.8 65.9 63.4-39.6.8 1.3-64.2 40.1z"/><path d="m2.8 64.1 62.6-39.1.8 1.3-63.4 39.6z"/><path d="m2.8 62.2 61.8-38.5.8 1.3-62.6 39.1z"/><path d="m2.8 60.4 61-38 .8 1.3-61.8 38.5z"/><path d="m2.8 58.6 60.1-37.5.9 1.3-61 38z"/><path d="m2.8 56.8 59.3-37 .8 1.3-60.1 37.5z"/><path d="m2.8 55 58.5-36.5.8 1.3-59.3 37z"/><path d="m2.8 53.2 57.7-36 .8 1.3-58.5 36.5z"/><path d="m2.8 51.4 56.9-35.5.8 1.3-57.7 36z"/><path d="m2.8 49.6 56.1-35 .8 1.3-56.9 35.5z"/><path d="m2.8 47.8 55.3-34.5.8 1.3-56.1 35z"/><path d="m2.8 46 53-33.1h2l.3.4-55.3 34.5z"/><path d="m2.8 44.2 50.1-31.3h2.9l-53 33.1z"/><path d="m2.8 42.4 47.2-29.5h2.9l-50.1 31.3z"/><path d="m2.8 40.6 44.3-27.7h2.9l-47.2 29.5z"/><path d="m2.8 38.8 41.4-25.9h2.9l-44.3 27.7z"/><path d="m2.8 36.9 38.5-24h2.9l-41.4 25.9z"/><path d="m2.8 35.1 35.6-22.2h2.9l-38.5 24z"/><path d="m2.8 33.3 32.7-20.4h2.9l-35.6 22.2z"/><path d="m2.8 31.5 29.8-18.6h2.9l-32.7 20.4z"/><path d="m2.8 29.7 26.9-16.8h2.9l-29.8 18.6z"/><path d="m2.8 27.9 24-15h2.9l-26.9 16.8z"/><path d="m2.8 26.1 21.1-13.2h2.9l-24 15z"/><path d="m2.8 24.3 18.3-11.4h2.8l-21.1 13.2z"/><path d="m2.8 22.5 15.4-9.6h2.9l-18.3 11.4z"/><path d="m2.8 20.7 12.5-7.8h2.9l-15.4 9.6z"/><path d="m2.8 18.9 9.6-6h2.9l-12.5 7.8z"/><path d="m2.8 17.1 6.7-4.2h2.9l-9.6 6z"/><path d="m2.8 15.3 3.8-2.4h2.9l-6.7 4.2z"/><path d="m2.8 13.4.9-.5h2.9l-3.8 2.4z"/><path d="m3.7 12.9-.9.5v-.5z"/><path d="m89.9 142.4 11.5-7.2v7.2z"/><path d="m87.2 142.4 14.2-8.9v1.7l-11.5 7.2z"/><path d="m84.4 142.4 17-10.6v1.7l-14.2 8.9z"/><path d="m83.5 141.2 17.9-11.2v1.8l-17 10.6h-.9z"/><path d="m83.5 139.5 17.9-11.2v1.7l-17.9 11.2z"/><path d="m83.5 137.8 17.9-11.2v1.7l-17.9 11.2z"/><path d="m83.5 136.1 17.9-11.2v1.7l-17.9 11.2z"/><path d="m83.5 134.3 17.9-11.1v1.7l-17.9 11.2z"/><path d="m83.5 132.6 17.9-11.2v1.8l-17.9 11.1z"/><path d="m83.5 130.9 17.9-11.2v1.7l-17.9 11.2z"/><path d="m83.5 129.2 17.9-11.2v1.7l-17.9 11.2z"/><path d="m83.5 127.5 17.9-11.2v1.7l-17.9 11.2z"/><path d="m83.5 125.7 17.9-11.1v1.7l-17.9 11.2z"/><path d="m83.5 124 17.9-11.2v1.8l-17.9 11.1z"/><path d="m83.5 122.3 17.9-11.2v1.7l-17.9 11.2z"/><path d="m83.5 120.6 17.9-11.2v1.7l-17.9 11.2z"/><path d="m83.5 118.9 17.9-11.2v1.7l-17.9 11.2z"/><path d="m83.5 117.1 17.9-11.1v1.7l-17.9 11.2z"/><path d="m83.5 115.4 17.9-11.2v1.8l-17.9 11.1z"/><path d="m83.5 113.7 17.9-11.2v1.7l-17.9 11.2z"/><path d="m83.5 112 17.9-11.2v1.7l-17.9 11.2z"/><path d="m83.5 110.3 17.9-11.2v1.7l-17.9 11.2z"/><path d="m83.5 108.5 17.9-11.1v1.7l-17.9 11.2z"/><path d="m83.5 106.8 17.9-11.2v1.8l-17.9 11.1z"/><path d="m83.5 105.1 17.9-11.2v1.7l-17.9 11.2z"/><path d="m83.5 103.4 17.9-11.2v1.7l-17.9 11.2z"/><path d="m83.5 101.7 17.9-11.2v1.7l-17.9 11.2z"/><path d="m83.5 99.9 17.9-11.1v1.7l-17.9 11.2z"/><path d="m83.5 98.2 17.9-11.2v1.8l-17.9 11.1z"/><path d="m83.5 96.5 17.9-11.2v1.7l-17.9 11.2z"/><path d="m83.5 94.8 17.9-11.2v1.7l-17.9 11.2z"/><path d="m83.5 93 17.9-11.1v1.7l-17.9 11.2z"/><path d="m83.5 91.3 17.9-11.1v1.7l-17.9 11.1z"/><path d="m83.5 89.6 17.9-11.2v1.8l-17.9 11.1z"/><path d="m83.5 87.9 17.9-11.2v1.7l-17.9 11.2z"/><path d="m83.5 86.2 17.9-11.2v1.7l-17.9 11.2z"/><path d="m83.5 84.5 17.9-11.2v1.7l-17.9 11.2z"/><path d="m83.5 82.7 15.2-9.4h2.7l-17.9 11.2z"/><path d="m83.5 81 12.4-7.7h2.8l-15.2 9.4z"/><path d="m83.5 79.3 9.7-6h2.7l-12.4 7.7z"/><path d="m83.5 77.6 6.9-4.3h2.8l-9.7 6z"/><path d="m83.5 75.9 4.1-2.6h2.8l-6.9 4.3z"/><path d="m83.5 74.1 1.4-.8h2.7l-4.1 2.6z"/><path d="m84.9 73.3-1.4.8v-.8z"/><path d="m98 47.9 1.6-1v1z"/><path d="m95.3 47.9 4.3-2.7v1.7l-1.6 1z"/><path d="m92.4 47.9 7.2-4.5v1.8l-4.3 2.7z"/><path d="m89.5 47.9 10.1-6.3v1.8l-7.2 4.5z"/><path d="m86.6 47.9 13-8.1v1.8l-10.1 6.3z"/><path d="m83.7 47.9 15.3-9.6.6.9v.6l-13 8.1z"/><path d="m80.8 47.9 17.4-10.9.8 1.3-15.3 9.6z"/><path d="m77.9 47.9 19.5-12.2.8 1.3-17.4 10.9z"/><path d="m75 47.9 21.5-13.5.9 1.3-19.5 12.2z"/><path d="m72.1 47.9 23.6-14.8.8 1.3-21.5 13.5z"/><path d="m69.2 47.9 25.7-16.1.8 1.3-23.6 14.8z"/><path d="m66.3 47.9 27.8-17.4.8 1.3-25.7 16.1z"/><path d="m63.4 47.9 29.9-18.7.8 1.3-27.8 17.4z"/><path d="m60.5 47.9 32-20 .8 1.3-29.9 18.7z"/><path d="m57.6 47.9 34.1-21.3.8 1.3-32 20z"/><path d="m54.7 47.9 36.1-22.6.9 1.3-34.1 21.3z"/><path d="m51.8 47.9 38.2-23.9.8 1.3-36.1 22.6z"/><path d="m48.9 47.9 40.3-25.2.8 1.3-38.2 23.9z"/><path d="m46 47.9 42.4-26.5.8 1.3-40.3 25.2z"/><path d="m43.1 47.9 44.5-27.8.8 1.3-42.4 26.5z"/><path d="m40.2 47.9 46.6-29.1.8 1.3-44.5 27.8z"/><path d="m37.3 47.9 48.7-30.4.8 1.3-46.6 29.1z"/><path d="m34.5 47.9 50.7-31.7.8 1.3-48.7 30.4z"/><path d="m31.6 47.9 52.7-33 .9 1.3-50.7 31.7z"/><path d="m28.7 47.9 54.8-34.3.8 1.3-52.7 33z"/><path d="m27.5 47.9-.5-.8 55.7-34.8.8 1.3-54.8 34.3z"/><path d="m27 47.1-.8-1.3 55.7-34.8.8 1.3z"/><path d="m26.2 45.8-.8-1.3 55.7-34.8.8 1.3z"/><path d="m25.4 44.5-.8-1.3 55.7-34.8.8 1.3z"/><path d="m24.6 43.2-.8-1.3 55.7-34.8.8 1.3z"/><path d="m23.8 41.9-.9-1.3 55.7-34.8.9 1.3z"/><path d="m22.9 40.6-.8-1.3 55.7-34.8.8 1.3z"/><path d="m22.1 39.3-.8-1.3 55.7-34.8.8 1.3z"/><path d="m21.3 38-.8-1.3 54-33.7h2.4l.1.2z"/><path d="m20.5 36.7-.8-1.3 51.9-32.4h2.9z"/><path d="m19.7 35.4-.8-1.3 49.8-31.1h2.9z"/><path d="m18.9 34.1-.8-1.3 47.7-29.8h2.9z"/><path d="m18.1 32.8-.9-1.3 45.7-28.5h2.9z"/><path d="m17.2 31.5-.8-1.3 43.6-27.2h2.9z"/><path d="m16.4 30.2-.8-1.3 41.5-25.9h2.9z"/><path d="m15.6 28.9-.8-1.3 39.4-24.6h2.9z"/><path d="m14.8 27.6-.8-1.3 37.3-23.3h2.9z"/><path d="m14 26.3-.8-1.3 35.2-22h2.9z"/><path d="m13.2 25-.8-1.3 33.1-20.7h2.9z"/><path d="m12.4 23.7-.9-1.3 31.1-19.4h2.9z"/><path d="m11.5 22.4-.8-1.3 29-18.1h2.9z"/><path d="m10.7 21.1-.8-1.3 26.9-16.8h2.9z"/><path d="m9.9 19.8-.8-1.3 24.8-15.5h2.9z"/><path d="m9.1 18.5-.8-1.3 22.7-14.2h2.9z"/><path d="m8.3 17.2-.8-1.3 20.6-12.9h2.9z"/><path d="m7.5 15.9-.8-1.3 18.5-11.6h2.9z"/><path d="m6.7 14.6-.8-1.3 16.4-10.3h2.9z"/><path d="m5.9 13.3-.9-1.3 14.4-9h2.9z"/><path d="m5 12-.3-.5v-1.1l11.8-7.4h2.9z"/><path d="m4.7 8.6 9-5.6h2.8l-11.8 7.4z"/><path d="m13.7 3-9 5.6v-5.6z"/><path d="m99.4 67.7 2-1.3v1.3z"/><path d="m96.6 67.7 4.8-3v1.7l-2 1.3z"/><path d="m93.9 67.7 7.5-4.7v1.7l-4.8 3z"/><path d="m91.1 67.7 10.3-6.5v1.8l-7.5 4.7z"/><path d="m88.3 67.7 13.1-8.2v1.7l-10.3 6.5z"/><path d="m85.6 67.7 15.8-9.9v1.7l-13.1 8.2z"/><path d="m83.5 67.2 17.9-11.1v1.7l-15.8 9.9h-2.1z"/><path d="m83.5 65.5 17.9-11.1v1.7l-17.9 11.1z"/><path d="m83.5 63.8 17.9-11.2v1.8l-17.9 11.1z"/><path d="m83.5 62.1 17.9-11.2v1.7l-17.9 11.2z"/><path d="m83.5 60.4 17.9-11.2v1.7l-17.9 11.2z"/><path d="m83.5 58.6 17.9-11.1v1.7l-17.9 11.2z"/><path d="m83.5 56.9 17.9-11.2v1.8l-17.9 11.1z"/><path d="m83.5 55.2 17.9-11.2v1.7l-17.9 11.2z"/><path d="m83.5 53.4 17.9-11.2v1.8l-17.9 11.2z"/><path d="m83.5 51.6 15.2-9.5h2.7v.1l-17.9 11.2z"/><path d="m83.5 49.8 12.3-7.7h2.9l-15.2 9.5z"/><path d="m83.5 48 9.4-5.9h2.9l-12.3 7.7z"/><path d="m83.5 46.2 6.5-4.1h2.9l-9.4 5.9z"/><path d="m83.5 44.4 3.6-2.3h2.9l-6.5 4.1z"/><path d="m83.5 42.6.7-.5h2.9l-3.6 2.3z"/><path d="m84.2 42.1-.7.5v-.5z"/><path d="m84.1 146 20.1-12.5v12.5z"/><path d="m81.4 146 22.8-14.2v1.7l-20.1 12.5z"/><path d="m78.6 146 25.6-16v1.8l-22.8 14.2z"/><path d="m75.9 146 28.3-17.7v1.7l-25.6 16z"/><path d="m73.1 146 31.1-19.4v1.7l-28.3 17.7z"/><path d="m70.4 146 33.8-21.1v1.7l-31.1 19.4z"/><path d="m67.6 146 36.6-22.8v1.7l-33.8 21.1z"/><path d="m64.8 146 39.4-24.6v1.8l-36.6 22.8z"/><path d="m62.1 146 42.1-26.3v1.7l-39.4 24.6z"/><path d="m59.3 146 44.9-28v1.7l-42.1 26.3z"/><path d="m56.6 146 47.6-29.7v1.7l-44.9 28z"/><path d="m53.8 146 50.4-31.4v1.7l-47.6 29.7z"/><path d="m51.1 146 53.1-33.2v1.8l-50.4 31.4z"/><path d="m48.3 146 55.9-34.9v1.7l-53.1 33.2z"/><path d="m45.6 146 58.6-36.6v1.7l-55.9 34.9z"/><path d="m42.8 146 61.4-38.3v1.7l-58.6 36.6z"/><path d="m40 146 64.2-40v1.7l-61.4 38.3z"/><path d="m37.3 146 66.9-41.8v1.8l-64.2 40z"/><path d="m34.5 146 69.7-43.5v1.7l-66.9 41.8z"/><path d="m31.8 146 72.4-45.2v1.7l-69.7 43.5z"/><path d="m29 146 75.2-46.9v1.7l-72.4 45.2z"/><path d="m26.3 146 77.9-48.6v1.7l-75.2 46.9z"/><path d="m23.9 146-.1-.2 80.4-50.2v1.8l-77.9 48.6z"/><path d="m23.8 145.8-.8-1.2 81.2-50.7v1.7z"/><path d="m23 144.6-.7-1.2 81.9-51.2v1.7z"/><path d="m22.3 143.4-.8-1.3 82.7-51.6v1.7z"/><path d="m21.5 142.1-.8-1.2 83.5-52.1v1.7z"/><path d="m20.7 140.9-.8-1.3 84.3-52.6v1.8z"/><path d="m19.9 139.6-.7-1.2 85-53.1v1.7z"/><path d="m19.2 138.4-.8-1.2 85.8-53.6v1.7z"/><path d="m18.4 137.2-.8-1.3 86.6-54v1.7z"/><path d="m17.6 135.9-.8-1.2 87.4-54.5v1.7z"/><path d="m16.8 134.7-.7-1.2 88.1-55.1v1.8z"/><path d="m16.1 133.5-.8-1.3 88.9-55.5v1.7z"/><path d="m15.3 132.2-.8-1.2 89.7-56v1.7z"/><path d="m14.5 131-.8-1.3 90.5-56.4v1.7z"/><path d="m13.7 129.7-.7-1.2 91.2-56.9v1.7z"/><path d="m13 128.5-.8-1.2 92-57.5v1.8z"/><path d="m12.2 127.3-.8-1.3 92.8-57.9v1.7z"/><path d="m11.4 126-.8-1.2 93.6-58.4v1.7z"/><path d="m10.6 124.8-.7-1.2 94.3-58.9v1.7z"/><path d="m9.9 123.6-.8-1.3 95.1-59.3v1.7z"/><path d="m9.1 122.3-.8-1.2 95.9-59.9v1.8z"/><path d="m8.3 121.1-.8-1.2 96.7-60.4v1.7z"/><path d="m7.5 119.9-.7-1.3 97.4-60.8v1.7z"/><path d="m6.8 118.6-.8-1.2 98.2-61.3v1.7z"/><path d="m6 117.4-.8-1.3 99-61.7v1.7z"/><path d="m5.2 116.1-.8-1.2 99.8-62.3v1.8z"/><path d="m4.4 114.9-.7-1.2 100.5-62.8v1.7z"/><path d="m3.7 113.7-.8-1.3 101.3-63.2v1.7z"/><path d="m2.9 112.4-.8-1.2 102.1-63.7v1.7z"/><path d="m2.1 111.2-.8-1.2 102.9-64.3v1.8z"/><path d="m1.3 110-.7-1.3 103.6-64.7v1.7z"/><path d="m.6 108.7-.6-.9v-.4l104.2-65.1v1.7z"/><path d="m0 105.5 104.2-65v1.8l-104.2 65.1z"/><path d="m0 103.7 104.2-65v1.8l-104.2 65z"/><path d="m0 101.9 103.5-64.6.7 1.1v.3l-104.2 65z"/><path d="m0 100.1 102.7-64.1.8 1.3-103.5 64.6z"/><path d="m0 98.3 101.9-63.6.8 1.3-102.7 64.1z"/><path d="m0 96.5 101.1-63.1.8 1.3-101.9 63.6z"/><path d="m0 94.7 100.2-62.6.9 1.3-101.1 63.1z"/><path d="m0 92.9 99.4-62.1.8 1.3-100.2 62.6z"/><path d="m0 91.1 98.6-61.6.8 1.3-99.4 62.1z"/><path d="m0 89.3 97.8-61.1.8 1.3-98.6 61.6z"/><path d="m0 87.5 97-60.6.8 1.3-97.8 61.1z"/><path d="m0 85.7 96.2-60.1.8 1.3-97 60.6z"/><path d="m0 83.9 95.4-59.6.8 1.3-96.2 60.1z"/><path d="m0 82.1 94.5-59.1.9 1.3-95.4 59.6z"/><path d="m0 80.2 93.7-58.5.8 1.3-94.5 59.1z"/><path d="m0 78.4 92.9-58 .8 1.3-93.7 58.5z"/><path d="m0 76.6 92.1-57.5.8 1.3-92.9 58z"/><path d="m0 74.8 91.3-57 .8 1.3-92.1 57.5z"/><path d="m0 73 90.5-56.5.8 1.3-91.3 57z"/><path d="m0 71.2 89.7-56 .8 1.3-90.5 56.5z"/><path d="m0 69.4 88.9-55.5.8 1.3-89.7 56z"/><path d="m0 67.6 88-55 .9 1.3-88.9 55.5z"/><path d="m0 65.8 87.2-54.5.8 1.3-88 55z"/><path d="m0 64 86.4-54 .8 1.3-87.2 54.5z"/><path d="m0 62.2 85.6-53.5.8 1.3-86.4 54z"/><path d="m0 60.3 84.8-52.9.8 1.3-85.6 53.5z"/><path d="m0 58.5 84-52.4.8 1.3-84.8 52.9z"/><path d="m0 56.7 83.2-51.9.8 1.3-84 52.4z"/><path d="m0 54.9 82.3-51.4.9 1.3-83.2 51.9z"/><path d="m0 53.1 81.5-50.9.8 1.3-82.3 51.4z"/><path d="m0 51.3 80.7-50.4.8 1.3-81.5 50.9z"/><path d="m0 49.5 79.3-49.5h.8l.6.9-80.7 50.4z"/><path d="m0 47.7 76.4-47.7h2.9l-79.3 49.5z"/><path d="m0 45.9 73.5-45.9h2.9l-76.4 47.7z"/><path d="m0 44.1 70.6-44.1h2.9l-73.5 45.9z"/><path d="m0 42.3 67.7-42.3h2.9l-70.6 44.1z"/><path d="m0 40.5 64.8-40.5h2.9l-67.7 42.3z"/><path d="m0 38.7 61.9-38.7h2.9l-64.8 40.5z"/><path d="m0 36.9 59-36.9h2.9l-61.9 38.7z"/><path d="m0 35 56.1-35h2.9l-59 36.9z"/><path d="m0 33.2 53.2-33.2h2.9l-56.1 35z"/><path d="m0 31.4 50.3-31.4h2.9l-53.2 33.2z"/><path d="m0 29.6 47.4-29.6h2.9l-50.3 31.4z"/><path d="m0 27.8 44.5-27.8h2.9l-47.4 29.6z"/><path d="m0 26 41.7-26h2.8l-44.5 27.8z"/><path d="m0 24.2 38.8-24.2h2.9l-41.7 26z"/><path d="m0 22.4 35.9-22.4h2.9l-38.8 24.2z"/><path d="m0 20.6 33-20.6h2.9l-35.9 22.4z"/><path d="m0 18.8 30.1-18.8h2.9l-33 20.6z"/><path d="m0 17 27.2-17h2.9l-30.1 18.8z"/><path d="m0 15.2 24.3-15.2h2.9l-27.2 17z"/><path d="m0 13.4 21.4-13.4h2.9l-24.3 15.2z"/><path d="m0 11.5 18.5-11.5h2.9l-21.4 13.4z"/><path d="m18.5 0-18.5 11.5v-11.5z"/></g><path d="m150.5 87.4 24.2-25.8h-23v-8.9h36.2v9.8l-24.1 25.7h25.3v9.1h-38.6z"/><path d="m192.9 37.5a6.7 6.7 0 0 1 7-6.7 7.3 7.3 0 0 1 5.2 1.9 6.5 6.5 0 0 1 .3 9.2l-.3.4a8.3 8.3 0 0 1 -5.2 1.9 7.4 7.4 0 0 1 -5.1-2 7 7 0 0 1 -1.9-4.7zm1.6 15.1h11.2v44.7h-11.2z"/><path d="m214.5 26.8 11.2-.2.8 70.3-11.2.2z"/><path d="m234.8 26.5h11.2l.8 70.3h-11.2z"/><path d="m253.7 37.5a6.3 6.3 0 0 1 2-4.7 6.5 6.5 0 0 1 5.1-2 6.9 6.9 0 0 1 5.1 1.9 6.5 6.5 0 0 1 .4 9.2l-.4.4a7.8 7.8 0 0 1 -5.1 1.9 7.3 7.3 0 0 1 -5.1-2 6.7 6.7 0 0 1 -2-4.7zm1.6 15.1h11.2v44.7h-11.2z"/><path d="m320.7 119.6h-11.1v-28.3h-.2a14.2 14.2 0 0 1 -6.1 5.3 20.2 20.2 0 0 1 -8.7 2 22.3 22.3 0 0 1 -9.2-1.9 21.3 21.3 0 0 1 -6.8-5.1 24 24 0 0 1 -4.4-7.6 28.7 28.7 0 0 1 -1.6-9.2 25.8 25.8 0 0 1 1.6-9.2 22.1 22.1 0 0 1 4.5-7.5 21 21 0 0 1 15.6-6.8 26.8 26.8 0 0 1 5.6.7 33.8 33.8 0 0 1 4.4 1.8 24.3 24.3 0 0 1 3.2 2.4 19.9 19.9 0 0 1 2.2 2.7h.2v-6.2h10.7zm-36.7-44.8a18.8 18.8 0 0 0 .8 5.2 13.5 13.5 0 0 0 2.4 4.6 11 11 0 0 0 4 3.4 12.7 12.7 0 0 0 11.1 0 15 15 0 0 0 4.2-3.3 16.1 16.1 0 0 0 2.6-4.6 17.3 17.3 0 0 0 0-10.4 14.8 14.8 0 0 0 -2.6-4.6 13.7 13.7 0 0 0 -4.2-3.4 11.7 11.7 0 0 0 -5.5-1.3 12.1 12.1 0 0 0 -5.6 1.3 9.7 9.7 0 0 0 -4 3.2 13.5 13.5 0 0 0 -2.4 4.6 18.9 18.9 0 0 0 -.8 5.3z"/><path d="m357.2 91.6h-.3a12 12 0 0 1 -5.4 4.8 17.7 17.7 0 0 1 -8.5 1.9 21 21 0 0 1 -5.6-.7 15.2 15.2 0 0 1 -5.4-2.3 12.1 12.1 0 0 1 -4.1-4.3 12.3 12.3 0 0 1 -1.6-6.5 11.3 11.3 0 0 1 2.8-8.1 19.8 19.8 0 0 1 7.3-4.5 42.6 42.6 0 0 1 9.9-2.1 98.1 98.1 0 0 1 10.7-.5v-1.2a6.7 6.7 0 0 0 -3-6.1 12.6 12.6 0 0 0 -7.3-2 17.1 17.1 0 0 0 -6.7 1.4 18.5 18.5 0 0 0 -5.4 3.7l-5.8-6.8a23.3 23.3 0 0 1 8.8-5.3 28.7 28.7 0 0 1 10.1-1.8 25.2 25.2 0 0 1 9.8 1.6 17.6 17.6 0 0 1 6.1 4.4 17.2 17.2 0 0 1 3.1 6 25.7 25.7 0 0 1 .9 6.7v27.2h-10.4zm-.2-14.7h-2.5l-5.7.2a26.8 26.8 0 0 0 -5.5 1.1 12.1 12.1 0 0 0 -4.2 2.2 4.8 4.8 0 0 0 -1.6 3.9 5.5 5.5 0 0 0 .7 2.8 4.9 4.9 0 0 0 1.8 1.7 10.6 10.6 0 0 0 2.5.9 13.3 13.3 0 0 0 2.8.3 11.9 11.9 0 0 0 8.8-3.1 11.7 11.7 0 0 0 2.9-8.4z"/></g></svg>